<svg xmlns="http://www.w3.org/2000/svg" viewBox="0 0 640 640">
  <defs>
    <linearGradient id="bg" x1="0" x2="1" y1="0" y2="1"><stop offset="0" stop-color="#d3f1c9"/><stop offset="1" stop-color="#48a963"/></linearGradient>
    <linearGradient id="skin" x1="0" x2="1" y1="0" y2="1"><stop offset="0" stop-color="#55b98d"/><stop offset="1" stop-color="#2c765f"/></linearGradient>
    <linearGradient id="leaf" x1="0" x2="1" y1="0" y2="1"><stop offset="0" stop-color="#73be45"/><stop offset="1" stop-color="#2f7132"/></linearGradient>
    <radialGradient id="flower" cx=".5" cy=".45" r=".65"><stop offset="0" stop-color="#ffd36a"/><stop offset=".45" stop-color="#ff7da9"/><stop offset="1" stop-color="#c74086"/></radialGradient>
  </defs>
  <rect width="640" height="640" fill="url(#bg)"/>
  <ellipse cx="320" cy="420" rx="210" ry="112" fill="url(#skin)" stroke="#173149" stroke-width="17"/>
  <path d="M175 278c76-42 134-34 178 22-58 38-124 62-198 72Z" fill="url(#leaf)" stroke="#173149" stroke-width="15" stroke-linejoin="round"/>
  <path d="M465 278c-76-42-134-34-178 22 58 38 124 62 198 72Z" fill="url(#leaf)" stroke="#173149" stroke-width="15" stroke-linejoin="round"/>
  <path d="M244 306c50-62 102-68 156-18-42 38-96 48-162 32Z" fill="url(#leaf)" stroke="#173149" stroke-width="15" stroke-linejoin="round"/>
  <path d="M320 130l30 88 88-38-42 86 92 24-90 28 34 90-80-50-32 92-32-92-80 50 34-90-90-28 92-24-42-86 88 38Z" fill="url(#flower)" stroke="#173149" stroke-width="12" stroke-linejoin="round"/>
  <circle cx="320" cy="283" r="37" fill="#ffd766" stroke="#173149" stroke-width="10"/>
  <ellipse cx="176" cy="502" rx="55" ry="32" fill="url(#skin)" stroke="#173149" stroke-width="13"/>
  <ellipse cx="464" cy="502" rx="55" ry="32" fill="url(#skin)" stroke="#173149" stroke-width="13"/>
  <path d="M165 415c-15-90 55-154 156-148 94 5 158 58 159 135 1 83-72 140-172 133-80-5-131-46-143-120Z" fill="url(#skin)" stroke="#173149" stroke-width="17"/>
  <ellipse cx="260" cy="382" rx="29" ry="43" fill="#2b1b36"/>
  <ellipse cx="386" cy="382" rx="29" ry="43" fill="#2b1b36"/>
  <ellipse cx="266" cy="369" rx="11" ry="22" fill="#e05576"/>
  <ellipse cx="392" cy="369" rx="11" ry="22" fill="#e05576"/>
  <circle cx="270" cy="356" r="5.5" fill="#fff"/>
  <circle cx="396" cy="356" r="5.5" fill="#fff"/>
  <path d="M296 458c24 24 52 24 76 0" fill="none" stroke="#173149" stroke-width="13" stroke-linecap="round"/>
  <path d="M178 372c32-12 64-16 96-10M424 364c34-2 66 6 96 22M238 476c38 14 78 13 118-3" fill="none" stroke="#276f59" stroke-width="20" stroke-linecap="round" opacity=".9"/>
  <text x="320" y="594" text-anchor="middle" font-family="Arial" font-size="34" font-weight="800" fill="#173149">Venusaur</text>
</svg>
