<svg xmlns="http://www.w3.org/2000/svg" viewBox="0 0 640 640">
  <defs>
    <linearGradient id="bg" x1="0" x2="1" y1="0" y2="1"><stop offset="0" stop-color="#d9f5cd"/><stop offset="1" stop-color="#54ad67"/></linearGradient>
    <linearGradient id="skin" x1="0" x2="1" y1="0" y2="1"><stop offset="0" stop-color="#61c49e"/><stop offset="1" stop-color="#32886d"/></linearGradient>
    <linearGradient id="leaf" x1="0" x2="1" y1="0" y2="1"><stop offset="0" stop-color="#7cc34c"/><stop offset="1" stop-color="#2f7532"/></linearGradient>
    <linearGradient id="bud" x1="0" x2="1" y1="0" y2="1"><stop offset="0" stop-color="#f5aacb"/><stop offset="1" stop-color="#b54b93"/></linearGradient>
  </defs>
  <rect width="640" height="640" fill="url(#bg)"/>
  <ellipse cx="320" cy="400" rx="188" ry="104" fill="url(#skin)" stroke="#173149" stroke-width="16"/>
  <path d="M188 304c56-42 110-48 160-16-50 36-106 58-168 66Z" fill="url(#leaf)" stroke="#173149" stroke-width="14" stroke-linejoin="round"/>
  <path d="M452 304c-56-42-110-48-160-16 50 36 106 58 168 66Z" fill="url(#leaf)" stroke="#173149" stroke-width="14" stroke-linejoin="round"/>
  <path d="M250 298c50-60 90-60 140 0-42 22-92 22-140 0Z" fill="url(#leaf)" stroke="#173149" stroke-width="14" stroke-linejoin="round"/>
  <path d="M286 210c35-70 86-70 120 0 17 36 12 72-16 106-44 10-88 4-126-18-6-33 1-62 22-88Z" fill="url(#bud)" stroke="#173149" stroke-width="15" stroke-linejoin="round"/>
  <path d="M346 201c-4 42-8 78-12 110" fill="none" stroke="#fee0ea" stroke-width="9" stroke-linecap="round"/>
  <ellipse cx="196" cy="482" rx="48" ry="29" fill="url(#skin)" stroke="#173149" stroke-width="12"/>
  <ellipse cx="444" cy="482" rx="48" ry="29" fill="url(#skin)" stroke="#173149" stroke-width="12"/>
  <path d="M184 393c-18-84 42-146 132-141 82 5 138 58 137 133-1 80-68 133-154 124-62-6-102-44-115-116Z" fill="url(#skin)" stroke="#173149" stroke-width="16"/>
  <ellipse cx="260" cy="362" rx="27" ry="40" fill="#2b1b36"/>
  <ellipse cx="378" cy="362" rx="27" ry="40" fill="#2b1b36"/>
  <ellipse cx="266" cy="350" rx="10" ry="20" fill="#e05576"/>
  <ellipse cx="384" cy="350" rx="10" ry="20" fill="#e05576"/>
  <circle cx="270" cy="338" r="5" fill="#fff"/>
  <circle cx="388" cy="338" r="5" fill="#fff"/>
  <path d="M296 432c22 22 46 22 68 0" fill="none" stroke="#173149" stroke-width="12" stroke-linecap="round"/>
  <path d="M190 350c28-10 56-13 84-7M416 344c30-2 58 4 84 16M246 455c32 11 64 10 96-2" fill="none" stroke="#28755e" stroke-width="18" stroke-linecap="round" opacity=".9"/>
  <text x="320" y="594" text-anchor="middle" font-family="Arial" font-size="34" font-weight="800" fill="#173149">Ivysaur</text>
</svg>
