<svg xmlns="http://www.w3.org/2000/svg" viewBox="0 0 640 640">
  <defs>
    <linearGradient id="bg" x1="0" x2="1" y1="0" y2="1"><stop offset="0" stop-color="#d8f6d6"/><stop offset="1" stop-color="#58b879"/></linearGradient>
    <linearGradient id="skin" x1="0" x2="1" y1="0" y2="1"><stop offset="0" stop-color="#6fd0af"/><stop offset="1" stop-color="#3b9f81"/></linearGradient>
    <linearGradient id="bulb" x1="0" x2="1" y1="0" y2="1"><stop offset="0" stop-color="#6cbf53"/><stop offset="1" stop-color="#2f6f38"/></linearGradient>
  </defs>
  <rect width="640" height="640" fill="url(#bg)"/>
  <ellipse cx="320" cy="390" rx="178" ry="98" fill="url(#skin)" stroke="#173149" stroke-width="16"/>
  <path d="M244 307c28-78 104-118 178-86 42 18 72 57 86 112-66 26-160 22-264-26Z" fill="url(#bulb)" stroke="#173149" stroke-width="15" stroke-linejoin="round"/>
  <path d="M307 235c-16 34-24 66-24 98M380 234c12 36 15 70 8 102M256 296c56 26 118 37 190 28" fill="none" stroke="#214d32" stroke-width="9" stroke-linecap="round"/>
  <path d="M186 365c-48-8-91 3-126 34 28 20 72 19 122 0Z" fill="url(#skin)" stroke="#173149" stroke-width="14" stroke-linejoin="round"/>
  <path d="M454 365c48-8 91 3 126 34-28 20-72 19-122 0Z" fill="url(#skin)" stroke="#173149" stroke-width="14" stroke-linejoin="round"/>
  <ellipse cx="214" cy="472" rx="44" ry="27" fill="url(#skin)" stroke="#173149" stroke-width="12"/>
  <ellipse cx="426" cy="472" rx="44" ry="27" fill="url(#skin)" stroke="#173149" stroke-width="12"/>
  <path d="M196 384c-22-86 33-151 119-145 78 5 130 61 123 136-8 80-74 127-154 116-48-7-78-43-88-107Z" fill="url(#skin)" stroke="#173149" stroke-width="16"/>
  <ellipse cx="260" cy="350" rx="27" ry="39" fill="#2b1b36"/>
  <ellipse cx="370" cy="350" rx="27" ry="39" fill="#2b1b36"/>
  <ellipse cx="266" cy="338" rx="10" ry="20" fill="#e05576"/>
  <ellipse cx="376" cy="338" rx="10" ry="20" fill="#e05576"/>
  <circle cx="270" cy="326" r="5" fill="#fff"/>
  <circle cx="380" cy="326" r="5" fill="#fff"/>
  <path d="M296 420c20 20 42 20 62 0" fill="none" stroke="#173149" stroke-width="11" stroke-linecap="round"/>
  <path d="M182 332c24-8 48-10 70-5M424 328c24-3 48 0 72 10M250 445c26 8 52 8 78 0" fill="none" stroke="#2d826b" stroke-width="18" stroke-linecap="round" opacity=".9"/>
  <text x="320" y="594" text-anchor="middle" font-family="Arial" font-size="34" font-weight="800" fill="#173149">Bulbasaur</text>
</svg>
