<svg xmlns="http://www.w3.org/2000/svg" viewBox="0 0 640 640">
  <defs>
    <linearGradient id="bg" x1="0" x2="1" y1="0" y2="1"><stop offset="0" stop-color="#ffd9b3"/><stop offset="1" stop-color="#ef6b3a"/></linearGradient>
    <linearGradient id="skin" x1="0" x2=".9" y1="0" y2="1"><stop offset="0" stop-color="#f06a2a"/><stop offset=".55" stop-color="#d74b24"/><stop offset="1" stop-color="#a92f18"/></linearGradient>
    <linearGradient id="belly" x1="0" x2="0" y1="0" y2="1"><stop offset="0" stop-color="#ffe1a0"/><stop offset="1" stop-color="#cc8649"/></linearGradient>
    <linearGradient id="eye" x1="0" x2="0" y1="0" y2="1"><stop offset="0" stop-color="#71ddff"/><stop offset=".55" stop-color="#229ed3"/><stop offset="1" stop-color="#0f5d8b"/></linearGradient>
    <radialGradient id="flame" cx=".45" cy=".34" r=".76"><stop offset="0" stop-color="#fff59f"/><stop offset=".36" stop-color="#ffc132"/><stop offset=".7" stop-color="#ff7028"/><stop offset="1" stop-color="#d92b2d"/></radialGradient>
  </defs>
  <rect width="640" height="640" fill="url(#bg)"/>
  <path d="M406 444c112-20 184-88 190-170 4-64-40-110-106-132 54 68 42 138-18 190-42 36-94 54-154 58Z" fill="#b73c1d" stroke="#2a1a13" stroke-width="16" stroke-linejoin="round"/>
  <path d="M514 100c80 52 110 142 72 218-30 62-90 98-154 120 84-68 108-148 68-224-16-34-30-74 14-114Z" fill="url(#flame)" stroke="#2a1a13" stroke-width="13" stroke-linejoin="round"/>
  <path d="M244 286c3-64 40-112 86-112 49 0 84 48 88 112l9 168c3 66-40 106-98 106s-101-40-98-106Z" fill="url(#skin)" stroke="#2a1a13" stroke-width="16" stroke-linejoin="round"/>
  <path d="M284 310c8-36 78-36 86 0l17 136c7 54-18 88-60 88s-66-34-59-88Z" fill="url(#belly)" stroke="#2a1a13" stroke-width="11" stroke-linejoin="round"/>
  <path d="M252 342c-56 24-108 6-140-42 52 12 92-8 120-46" fill="#c9471f" stroke="#2a1a13" stroke-width="14" stroke-linejoin="round"/>
  <path d="M102 294c-15 12-26 30-32 52 22-7 40-6 58 3 4-20-4-40-26-55Z" fill="#c9471f" stroke="#2a1a13" stroke-width="9"/>
  <ellipse cx="68" cy="349" rx="5" ry="16" fill="#fff0cc" transform="rotate(42 68 349)"/>
  <ellipse cx="96" cy="355" rx="5" ry="16" fill="#fff0cc" transform="rotate(22 96 355)"/>
  <path d="M400 342c54 22 104 2 136-46-52 11-90-8-120-44" fill="#c9471f" stroke="#2a1a13" stroke-width="14" stroke-linejoin="round"/>
  <path d="M542 292c15 12 26 30 32 52-22-7-40-6-58 3-4-20 4-40 26-55Z" fill="#c9471f" stroke="#2a1a13" stroke-width="9"/>
  <ellipse cx="576" cy="347" rx="5" ry="16" fill="#fff0cc" transform="rotate(-42 576 347)"/>
  <ellipse cx="548" cy="355" rx="5" ry="16" fill="#fff0cc" transform="rotate(-22 548 355)"/>
  <path d="M260 508c-44 34-96 38-146 10 39 46 116 56 174 13Z" fill="#c9471f" stroke="#2a1a13" stroke-width="14" stroke-linejoin="round"/>
  <path d="M396 508c44 34 96 38 146 10-39 46-116 56-174 13Z" fill="#c9471f" stroke="#2a1a13" stroke-width="14" stroke-linejoin="round"/>
  <path d="M236 216c0-76 58-130 138-124 70 5 118 52 121 114 3 82-60 142-142 142-70 0-117-54-117-132Z" fill="url(#skin)" stroke="#2a1a13" stroke-width="15"/>
  <path d="M306 78l28 72 49-55 2 88-116-15Z" fill="#c9471f" stroke="#2a1a13" stroke-width="12" stroke-linejoin="round"/>
  <path d="M254 206c38-30 80-36 126-18M386 190c50 0 88 22 116 64" fill="none" stroke="#2a1a13" stroke-width="11" stroke-linecap="round"/>
  <ellipse cx="296" cy="242" rx="26" ry="40" fill="#172033"/>
  <ellipse cx="402" cy="242" rx="26" ry="40" fill="#172033"/>
  <ellipse cx="302" cy="232" rx="12" ry="24" fill="url(#eye)"/>
  <ellipse cx="408" cy="232" rx="12" ry="24" fill="url(#eye)"/>
  <circle cx="307" cy="216" r="5.5" fill="#fff"/>
  <circle cx="413" cy="216" r="5.5" fill="#fff"/>
  <path d="M262 220c30-22 58-24 82-8M384 211c38-6 70 6 94 34" fill="none" stroke="#2a1a13" stroke-width="9" stroke-linecap="round"/>
  <path d="M324 304c24 19 52 18 78-2" fill="none" stroke="#2a1a13" stroke-width="13" stroke-linecap="round"/>
  <path d="M360 318l9 22 12-22" fill="none" stroke="#fff0cc" stroke-width="6.5" stroke-linecap="round" stroke-linejoin="round"/>
  <text x="320" y="594" text-anchor="middle" font-family="Arial" font-size="34" font-weight="800" fill="#2a1a13">Charmeleon</text>
</svg>
