<svg xmlns="http://www.w3.org/2000/svg" viewBox="0 0 640 640">
  <defs>
    <linearGradient id="bg" x1="0" x2="1" y1="0" y2="1"><stop offset="0" stop-color="#fff1d4"/><stop offset="1" stop-color="#ffb56d"/></linearGradient>
    <linearGradient id="skin" x1="0" x2=".9" y1="0" y2="1"><stop offset="0" stop-color="#ffac45"/><stop offset=".58" stop-color="#f07a2c"/><stop offset="1" stop-color="#d65b22"/></linearGradient>
    <linearGradient id="belly" x1="0" x2="0" y1="0" y2="1"><stop offset="0" stop-color="#fff0bd"/><stop offset="1" stop-color="#efbd67"/></linearGradient>
    <radialGradient id="flame" cx=".45" cy=".35" r=".76"><stop offset="0" stop-color="#fff7a5"/><stop offset=".42" stop-color="#ffc238"/><stop offset=".74" stop-color="#ff792b"/><stop offset="1" stop-color="#dc302e"/></radialGradient>
    <linearGradient id="eye" x1="0" x2="0" y1="0" y2="1"><stop offset="0" stop-color="#83e5ff"/><stop offset=".55" stop-color="#26a6db"/><stop offset="1" stop-color="#115f8b"/></linearGradient>
  </defs>
  <rect width="640" height="640" fill="url(#bg)"/>
  <circle cx="112" cy="110" r="28" fill="#fff8e8" opacity=".6"/>
  <path d="M394 420c74-10 132-54 146-113 12-50-16-92-68-114 30 45 18 90-24 124-32 26-72 38-116 41Z" fill="#e46b27" stroke="#2a1a13" stroke-width="13" stroke-linejoin="round"/>
  <path d="M496 165c50 32 68 90 43 142-20 42-60 64-104 78 50-40 66-92 42-142-12-25-19-52 19-78Z" fill="url(#flame)" stroke="#2a1a13" stroke-width="10" stroke-linejoin="round"/>
  <path d="M238 320c0-56 32-98 78-98 48 0 80 42 82 98l8 122c4 68-36 112-90 112s-94-44-90-112Z" fill="url(#skin)" stroke="#2a1a13" stroke-width="14" stroke-linejoin="round"/>
  <path d="M276 332c8-36 72-36 80 0l16 106c8 54-16 88-56 88s-64-34-56-88Z" fill="url(#belly)" stroke="#2a1a13" stroke-width="10" stroke-linejoin="round"/>
  <path d="M246 350c-38 18-72 12-100-16 36 2 64-12 88-38" fill="#ed792f" stroke="#2a1a13" stroke-width="12" stroke-linejoin="round"/>
  <ellipse cx="140" cy="337" rx="18" ry="14" fill="#ed792f" stroke="#2a1a13" stroke-width="8"/>
  <ellipse cx="126" cy="356" rx="5" ry="13" fill="#fff0cb" transform="rotate(42 126 356)"/>
  <ellipse cx="146" cy="360" rx="5" ry="12" fill="#fff0cb" transform="rotate(18 146 360)"/>
  <path d="M386 350c36 16 68 8 94-20-32 2-58-10-82-36" fill="#ed792f" stroke="#2a1a13" stroke-width="12" stroke-linejoin="round"/>
  <ellipse cx="486" cy="333" rx="18" ry="14" fill="#ed792f" stroke="#2a1a13" stroke-width="8"/>
  <ellipse cx="502" cy="352" rx="5" ry="13" fill="#fff0cb" transform="rotate(-42 502 352)"/>
  <ellipse cx="482" cy="358" rx="5" ry="12" fill="#fff0cb" transform="rotate(-18 482 358)"/>
  <path d="M266 512c-38 28-84 32-128 10 34 38 98 48 150 14Z" fill="#ed792f" stroke="#2a1a13" stroke-width="12" stroke-linejoin="round"/>
  <path d="M366 512c38 28 84 32 128 10-34 38-98 48-150 14Z" fill="#ed792f" stroke="#2a1a13" stroke-width="12" stroke-linejoin="round"/>
  <path d="M238 226c0-62 46-106 110-101 58 4 98 43 101 96 3 68-50 118-116 118-58 0-95-46-95-113Z" fill="url(#skin)" stroke="#2a1a13" stroke-width="13" stroke-linejoin="round"/>
  <path d="M274 164c24-22 60-34 96-28-36 8-68 30-88 58Z" fill="#ffc46d" opacity=".55"/>
  <ellipse cx="296" cy="234" rx="24" ry="35" fill="#172033"/>
  <ellipse cx="384" cy="234" rx="24" ry="35" fill="#172033"/>
  <ellipse cx="302" cy="224" rx="12" ry="22" fill="url(#eye)"/>
  <ellipse cx="390" cy="224" rx="12" ry="22" fill="url(#eye)"/>
  <circle cx="306" cy="211" r="6" fill="#fff"/>
  <circle cx="394" cy="211" r="6" fill="#fff"/>
  <circle cx="336" cy="266" r="3.4" fill="#2a1a13"/>
  <circle cx="358" cy="266" r="3.4" fill="#2a1a13"/>
  <path d="M322 282c10 9 19 13 30 13s20-4 30-13" fill="none" stroke="#2a1a13" stroke-width="10" stroke-linecap="round"/>
  <text x="320" y="594" text-anchor="middle" font-family="Arial" font-size="34" font-weight="800" fill="#2a1a13">Charmander</text>
</svg>
