<svg xmlns="http://www.w3.org/2000/svg" viewBox="0 0 640 640">
  <defs>
    <linearGradient id="bg" x1="0" x2="1" y1="0" y2="1"><stop offset="0" stop-color="#ffd0a1"/><stop offset="1" stop-color="#e76536"/></linearGradient>
    <linearGradient id="body" x1="0" x2="1" y1="0" y2="1"><stop offset="0" stop-color="#ff9b32"/><stop offset="1" stop-color="#e5531d"/></linearGradient>
    <linearGradient id="belly" x1="0" x2="0" y1="0" y2="1"><stop offset="0" stop-color="#ffe1a0"/><stop offset="1" stop-color="#d89b4a"/></linearGradient>
    <linearGradient id="wing" x1="0" x2="1" y1="0" y2="1"><stop offset="0" stop-color="#7fd9ef"/><stop offset="1" stop-color="#2f91c1"/></linearGradient>
    <radialGradient id="flame" cx=".45" cy=".55" r=".65"><stop offset="0" stop-color="#fff27a"/><stop offset=".48" stop-color="#ff9f28"/><stop offset="1" stop-color="#dd2f1e"/></radialGradient>
    <linearGradient id="eye" x1="0" x2="0" y1="0" y2="1"><stop offset="0" stop-color="#6ee4ff"/><stop offset="1" stop-color="#073a73"/></linearGradient>
  </defs>
  <rect width="640" height="640" fill="url(#bg)"/>
  <path d="M246 280C160 164 91 95 40 84c10 94 54 171 151 230Z" fill="url(#wing)" stroke="#2a1a13" stroke-width="17" stroke-linejoin="round"/>
  <path d="M394 280C480 164 549 95 600 84c-10 94-54 171-151 230Z" fill="url(#wing)" stroke="#2a1a13" stroke-width="17" stroke-linejoin="round"/>
  <path d="M92 420c84 62 168 54 214-18 26 44 16 84-30 110-66 37-146 20-210-44Z" fill="url(#body)" stroke="#2a1a13" stroke-width="16" stroke-linejoin="round"/>
  <path d="M412 438c54-48 90-102 108-162 42 34 47 86 12 134-34 48-78 78-132 94Z" fill="url(#body)" stroke="#2a1a13" stroke-width="16" stroke-linejoin="round"/>
  <path d="M512 252c7-54 34-94 82-120-11 52-2 97 27 136-51 12-88 6-109-16Z" fill="url(#flame)" stroke="#2a1a13" stroke-width="12" stroke-linejoin="round"/>
  <path d="M258 250c-13 41-35 74-66 101 42 22 88 19 136-10Z" fill="url(#body)" stroke="#2a1a13" stroke-width="15" stroke-linejoin="round"/>
  <path d="M382 250c13 41 35 74 66 101-42 22-88 19-136-10Z" fill="url(#body)" stroke="#2a1a13" stroke-width="15" stroke-linejoin="round"/>
  <ellipse cx="320" cy="398" rx="93" ry="128" fill="url(#body)" stroke="#2a1a13" stroke-width="17"/>
  <path d="M282 306c10-56 34-98 72-126 52 26 79 72 78 136-46 28-96 25-150-10Z" fill="url(#body)" stroke="#2a1a13" stroke-width="17" stroke-linejoin="round"/>
  <ellipse cx="320" cy="425" rx="58" ry="84" fill="url(#belly)" stroke="#2a1a13" stroke-width="11"/>
  <path d="M294 198l38-74-3 88Z" fill="url(#body)" stroke="#2a1a13" stroke-width="12" stroke-linejoin="round"/>
  <path d="M374 198l76-50-36 82Z" fill="url(#body)" stroke="#2a1a13" stroke-width="12" stroke-linejoin="round"/>
  <ellipse cx="314" cy="262" rx="23" ry="36" fill="#112138"/>
  <ellipse cx="386" cy="262" rx="23" ry="36" fill="#112138"/>
  <ellipse cx="320" cy="252" rx="9" ry="19" fill="url(#eye)"/>
  <ellipse cx="392" cy="252" rx="9" ry="19" fill="url(#eye)"/>
  <circle cx="324" cy="239" r="5" fill="#fff"/>
  <circle cx="396" cy="239" r="5" fill="#fff"/>
  <path d="M306 325c24 24 54 28 83 10" fill="none" stroke="#2a1a13" stroke-width="13" stroke-linecap="round"/>
  <path d="M334 335l14 34 16-30" fill="#fff3d6" stroke="#2a1a13" stroke-width="8" stroke-linejoin="round"/>
  <path d="M244 516c-52 36-110 38-174 8 44 56 136 70 212 18Z" fill="url(#body)" stroke="#2a1a13" stroke-width="15" stroke-linejoin="round"/>
  <path d="M396 516c52 36 110 38 174 8-44 56-136 70-212 18Z" fill="url(#body)" stroke="#2a1a13" stroke-width="15" stroke-linejoin="round"/>
  <ellipse cx="122" cy="304" rx="10" ry="25" fill="#fff0c8" transform="rotate(42 122 304)"/>
  <ellipse cx="157" cy="306" rx="10" ry="25" fill="#fff0c8" transform="rotate(28 157 306)"/>
  <ellipse cx="518" cy="304" rx="10" ry="25" fill="#fff0c8" transform="rotate(-42 518 304)"/>
  <ellipse cx="483" cy="306" rx="10" ry="25" fill="#fff0c8" transform="rotate(-28 483 306)"/>
  <text x="320" y="594" text-anchor="middle" font-family="Arial" font-size="34" font-weight="800" fill="#2a1a13">Charizard</text>
</svg>
