<svg xmlns="http://www.w3.org/2000/svg" viewBox="0 0 640 640">
  <defs>
    <linearGradient id="bg" x1="0" x2="1" y1="0" y2="1"><stop offset="0" stop-color="#dcf6ff"/><stop offset="1" stop-color="#58afe4"/></linearGradient>
    <linearGradient id="skin" x1="0" x2="1" y1="0" y2="1"><stop offset="0" stop-color="#5fcaff"/><stop offset="1" stop-color="#217bbb"/></linearGradient>
    <linearGradient id="shell" x1="0" x2="1" y1="0" y2="1"><stop offset="0" stop-color="#b97845"/><stop offset="1" stop-color="#603923"/></linearGradient>
    <linearGradient id="belly" x1="0" x2="0" y1="0" y2="1"><stop offset="0" stop-color="#ffe9a8"/><stop offset="1" stop-color="#d39e51"/></linearGradient>
    <linearGradient id="eye" x1="0" x2="0" y1="0" y2="1"><stop offset="0" stop-color="#74e8ff"/><stop offset="1" stop-color="#13577f"/></linearGradient>
  </defs>
  <rect width="640" height="640" fill="url(#bg)"/>
  <path d="M218 220c-55-27-92-72-108-126 58 18 93 60 111 118Z" fill="#eefbff" stroke="#173149" stroke-width="12" stroke-linejoin="round"/>
  <path d="M422 220c55-27 92-72 108-126-58 18-93 60-111 118Z" fill="#eefbff" stroke="#173149" stroke-width="12" stroke-linejoin="round"/>
  <path d="M220 348c-70-38-90-110-50-166 54 42 91 96 112 164Z" fill="url(#shell)" stroke="#173149" stroke-width="16" stroke-linejoin="round"/>
  <path d="M200 220c30 36 52 76 66 120M184 292c30 14 60 18 90 12" fill="none" stroke="#edb568" stroke-width="8" stroke-linecap="round"/>
  <ellipse cx="320" cy="410" rx="114" ry="142" fill="url(#skin)" stroke="#173149" stroke-width="16"/>
  <ellipse cx="320" cy="438" rx="74" ry="94" fill="url(#belly)" stroke="#173149" stroke-width="12"/>
  <path d="M282 390c27 21 49 21 76 0M276 438c33 21 55 21 88 0" fill="none" stroke="#aa7439" stroke-width="8" stroke-linecap="round"/>
  <path d="M234 378c-54 30-108 14-146-34 60 4 98-23 126-64Z" fill="url(#skin)" stroke="#173149" stroke-width="14" stroke-linejoin="round"/>
  <ellipse cx="88" cy="354" rx="31" ry="23" fill="url(#skin)" stroke="#173149" stroke-width="10"/>
  <ellipse cx="68" cy="371" rx="8" ry="14" fill="#edfaff" transform="rotate(36 68 371)"/>
  <ellipse cx="91" cy="378" rx="8" ry="14" fill="#edfaff" transform="rotate(10 91 378)"/>
  <path d="M406 378c54 30 108 14 146-34-60 4-98-23-126-64Z" fill="url(#skin)" stroke="#173149" stroke-width="14" stroke-linejoin="round"/>
  <ellipse cx="552" cy="354" rx="31" ry="23" fill="url(#skin)" stroke="#173149" stroke-width="10"/>
  <ellipse cx="572" cy="371" rx="8" ry="14" fill="#edfaff" transform="rotate(-36 572 371)"/>
  <ellipse cx="549" cy="378" rx="8" ry="14" fill="#edfaff" transform="rotate(-10 549 378)"/>
  <path d="M248 516c-56 40-116 44-170 12 44 53 132 64 194 16Z" fill="url(#skin)" stroke="#173149" stroke-width="14" stroke-linejoin="round"/>
  <ellipse cx="178" cy="542" rx="10" ry="17" fill="#edfaff" transform="rotate(68 178 542)"/>
  <ellipse cx="212" cy="546" rx="10" ry="17" fill="#edfaff" transform="rotate(84 212 546)"/>
  <path d="M392 516c56 40 116 44 170 12-44 53-132 64-194 16Z" fill="url(#skin)" stroke="#173149" stroke-width="14" stroke-linejoin="round"/>
  <ellipse cx="462" cy="542" rx="10" ry="17" fill="#edfaff" transform="rotate(-68 462 542)"/>
  <ellipse cx="428" cy="546" rx="10" ry="17" fill="#edfaff" transform="rotate(-84 428 546)"/>
  <path d="M422 448c58 12 96 48 114 106-52-5-93-33-122-82Z" fill="#eefbff" stroke="#173149" stroke-width="14" stroke-linejoin="round"/>
  <path d="M431 474c35 15 59 39 72 72" fill="none" stroke="#bdeeff" stroke-width="9" stroke-linecap="round"/>
  <path d="M218 228c0-82 61-140 145-134 75 6 124 58 125 128 2 90-67 154-153 154-72 0-117-60-117-148Z" fill="url(#skin)" stroke="#173149" stroke-width="16"/>
  <ellipse cx="286" cy="254" rx="27" ry="39" fill="#173149"/>
  <ellipse cx="398" cy="254" rx="27" ry="39" fill="#173149"/>
  <ellipse cx="292" cy="244" rx="11" ry="22" fill="url(#eye)"/>
  <ellipse cx="404" cy="244" rx="11" ry="22" fill="url(#eye)"/>
  <circle cx="298" cy="229" r="6" fill="#fff"/>
  <circle cx="410" cy="229" r="6" fill="#fff"/>
  <path d="M304 323c24 24 48 24 72 0" fill="none" stroke="#173149" stroke-width="13" stroke-linecap="round"/>
  <text x="320" y="594" text-anchor="middle" font-family="Arial" font-size="34" font-weight="800" fill="#173149">Wartortle</text>
</svg>
